<svg xmlns="http://www.w3.org/2000/svg" viewBox="0 0 240.57 152.96"><g data-name="Calque 2"><path d="M94.26 101a74.89 74.89 0 0 1 74.81-74.89V.14C167.36.05 165.63 0 163.9 0a94.66 94.66 0 0 0-94.66 94.66c0 2.47.1 4.92.28 7.34h24.77c-.01-.34-.03-.68-.03-1" style="fill:#630f31"/><path d="M171.62 31.57c-38.08 0-68.95 30.08-68.95 67.19 0 1.08 0 2.16.09 3.24h18.54c.35-26.38 22.32-47.66 49.39-47.66s49.05 21.28 49.39 47.66h20.41c0-1.08.08-2.16.08-3.24 0-37.11-30.87-67.19-68.95-67.19" style="fill:#9c183c"/><path d="M171.62 62a40 40 0 0 0-40 40v1h40v39a40 40 0 0 0 0-80.08Z" style="fill:#1e1121"/><text style="font-size:40px;fill:#f6f6f6;font-family:Merriweather-Black,Merriweather;font-weight:800" transform="translate(0 142.04)">ECHOES</text></g></svg>