<svg xmlns="http://www.w3.org/2000/svg" viewBox="0 0 99.82 111.49"><defs><style>.cls-1{fill:#191919;stroke:#ffe524;stroke-miterlimit:10;stroke-width:2px;}</style></defs><g id="Calque_2" data-name="Calque 2"><g id="logo_final" data-name="logo final"><path class="cls-1" d="M69.13,40.48C61.38,32.82,57,35.27,56.63,26.85c-.44-11.24,3.62-15.23,36.63-20.91a4.61,4.61,0,0,1,5.56,4.69v.43A11,11,0,0,1,88.82,22c-3,.33-8.8,0-8.2,2.5,1.73,7.14,19.71,21.49,15.6,39.65C91.5,84.9,58.58,94.71,40.43,81.53c-4.57-3.32-14.55-10.6-12.6-17.12,1.24-4.11,7.18-8.84,9.73-6.86,2,1.57,22.42,13.24,31.82.89C75.09,51,72.7,44,69.13,40.48Z"/><circle class="cls-1" cx="53.13" cy="47.57" r="9.56"/><polygon class="cls-1" points="45.63 96.73 48.96 90.69 52.25 96.75 58.28 100.08 52.23 103.37 48.9 109.41 45.61 103.35 39.57 100.02 45.63 96.73"/><polygon class="cls-1" points="69.64 96.81 72.82 90.7 76.26 96.67 82.37 99.85 76.39 103.29 73.21 109.4 69.78 103.43 63.66 100.25 69.64 96.81"/><path class="cls-1" d="M37.56,52.51l-25,13.2,2.36-28.15-13.2-25,28.15,2.36,25-13.2L52.51,29.89c-.38,0-9.61.16-14.18,8C34.37,44.79,37.23,51.75,37.56,52.51Z"/></g></g></svg>